<svg width="22" height="22" viewBox="0 0 22 22" fill="none" xmlns="http://www.w3.org/2000/svg">
<path d="M6.83145 0C3.6735 0 1.10467 2.57023 1.10467 5.72865C1.10467 7.0058 1.52976 8.18265 2.23887 9.13594C0.842213 10.1127 0 11.5688 0 13.1295V21.27H1.5935V13.1291C1.5935 12.0178 2.26653 10.9642 3.37635 10.2851C4.33808 11.0167 5.53274 11.4559 6.83145 11.4559C8.14656 11.4559 9.35528 11.0064 10.3236 10.2575C11.461 10.9366 12.15 12.0005 12.15 13.1291V21.2695H13.7435V13.1291C13.7435 11.5435 12.8816 10.0752 11.4517 9.09938C12.1448 8.15218 12.5592 6.98845 12.5592 5.72818C12.5596 2.57023 9.98987 0 6.83145 0ZM6.83145 9.86332C4.55227 9.86332 2.69865 8.00783 2.69865 5.72865C2.69865 3.44853 4.55227 1.59397 6.83145 1.59397C9.11109 1.59397 10.9661 3.44853 10.9661 5.72865C10.9661 8.00783 9.11109 9.86332 6.83145 9.86332Z" fill="white"/>
<path d="M20.0342 9.35528C20.3759 8.7924 20.5835 8.13859 20.5835 7.4337C20.5835 5.37386 18.9084 3.69881 16.85 3.69881C14.7906 3.69881 13.1151 5.37386 13.1151 7.4337C13.1151 9.4926 14.7906 11.1667 16.85 11.1667C17.6214 11.1667 18.3395 10.9314 18.9347 10.5288C19.408 10.871 19.6944 11.3434 19.6944 11.8407V16.5668H21.2879V11.8402C21.2884 10.8846 20.8235 9.99127 20.0342 9.35528ZM16.85 9.57321C15.6689 9.57321 14.7086 8.61289 14.7086 7.43417C14.7086 6.2531 15.6694 5.29325 16.85 5.29325C18.0301 5.29325 18.9895 6.25357 18.9895 7.43417C18.9895 8.61289 18.0301 9.57321 16.85 9.57321Z" fill="white"/>
</svg>
