<svg width="46" height="46" viewBox="0 0 46 46" fill="none" xmlns="http://www.w3.org/2000/svg">
<path d="M31.5185 0C23.5111 0 17.037 6.47407 17.037 14.4814C17.037 16.1851 17.3778 17.8888 17.8888 19.5925L0 37.4815V46H8.51852V40.8889H13.6296V35.7778H18.7407L26.4074 28.1112C27.9407 28.6222 29.6444 28.963 31.5185 28.963C39.5259 28.963 45.9999 22.4889 45.9999 14.4815C45.9999 6.47416 39.5259 0 31.5185 0ZM35.7778 15.3333C32.8814 15.3333 30.6667 13.1186 30.6667 10.2222C30.6667 7.32588 32.8814 5.11111 35.7778 5.11111C38.6741 5.11111 40.8889 7.32588 40.8889 10.2222C40.8889 13.1186 38.6741 15.3333 35.7778 15.3333Z" fill="white"/>
</svg>
