<svg width="64" height="28" viewBox="0 0 64 28" fill="none" xmlns="http://www.w3.org/2000/svg">
<path d="M21.959 2.83698H0V6.83698H21.959V2.83698Z" fill="white"/>
<path d="M21.959 11.166H5.943V15.166H21.959V11.166Z" fill="white"/>
<path d="M21.959 20.587H11.949V24.587H21.959V20.587Z" fill="white"/>
<path d="M63.508 1.242C62.997 0.494001 62.138 0 61.169 0H30.6C29.651 0 28.812 0.476999 28.297 1.199L45.94 15.91L63.508 1.242Z" fill="white"/>
<path d="M27.769 3.706V24.593C27.769 26.15 29.043 27.424 30.6 27.424H61.169C62.726 27.424 64 26.15 64 24.593V3.781L45.941 18.859L27.769 3.706Z" fill="white"/>
</svg>
