<svg width="7" height="26" viewBox="0 0 7 26" fill="none" xmlns="http://www.w3.org/2000/svg">
<path d="M3.03333 6.5C4.70167 6.5 6.06667 5.0375 6.06667 3.25C6.06667 1.4625 4.70167 0 3.03333 0C1.365 0 0 1.4625 0 3.25C0 5.0375 1.365 6.5 3.03333 6.5ZM3.03333 9.75C1.365 9.75 0 11.2125 0 13C0 14.7875 1.365 16.25 3.03333 16.25C4.70167 16.25 6.06667 14.7875 6.06667 13C6.06667 11.2125 4.70167 9.75 3.03333 9.75ZM3.03333 19.5C1.365 19.5 0 20.9625 0 22.75C0 24.5375 1.365 26 3.03333 26C4.70167 26 6.06667 24.5375 6.06667 22.75C6.06667 20.9625 4.70167 19.5 3.03333 19.5Z" fill="#2E2525"/>
</svg>
