<svg width="43" height="39" viewBox="0 0 43 39" fill="none" xmlns="http://www.w3.org/2000/svg">
<path d="M41.7683 34.4127L41.7696 34.4141L42.125 34.6702V14.8479L27.0033 23.7725L41.7683 34.4127Z" fill="white"/>
<path d="M4.78515 7.01347H4.41562C2.46482 7.01347 0.875 8.60329 0.875 10.5541V12.8486L4.78515 15.1517V7.01347Z" fill="white"/>
<path d="M38.5844 7.01347H38.2148V15.1517L42.125 12.8486V10.5541C42.125 8.60329 40.5352 7.01347 38.5844 7.01347Z" fill="white"/>
<path d="M40.7629 35.8075L23.0073 23.0121C22.1059 22.3626 20.8941 22.3626 19.9927 23.0121L2.23666 35.8075L2.23645 35.8076L0.875 36.7887V38.0537C0.875 38.5283 1.25979 38.9131 1.73438 38.9131H41.2656C41.7406 38.9131 42.125 38.5283 42.125 38.0537V36.7888L40.7642 35.8081C40.7638 35.8078 40.7633 35.8078 40.7629 35.8075Z" fill="white"/>
<path d="M6.49477 30.6203L15.997 23.7728L0.875 14.8481V34.67L6.49409 30.6206L6.49477 30.6203Z" fill="white"/>
<path d="M17.8563 7.98457C17.7875 7.95016 17.693 7.93301 17.5726 7.93301C17.332 7.93301 16.9969 8.00172 16.6445 8.1736C15.9313 8.52598 15.407 9.22207 15.3211 9.95252C15.2437 10.5455 15.5531 11.4994 16.1719 11.5853C16.3179 11.6025 16.55 11.6025 16.8508 11.3189C17.5899 10.6314 18.0195 9.01577 18.0023 8.1736C17.9508 8.02753 17.8906 7.99312 17.8563 7.98457Z" fill="white"/>
<path d="M18.9906 21.6142C20.4945 20.5314 22.5055 20.5314 24.0094 21.6142L25.4789 22.6713L36.4961 16.1744V3.52441C36.4961 3.04316 36.118 2.66503 35.6367 2.66503H28.7016V0.946281C28.7016 0.473583 28.3148 0.0869064 27.8422 0.0869064H7.36327C6.89062 0.0869064 6.50389 0.473583 6.50389 0.946281V16.1744L17.5211 22.6713L18.9906 21.6142ZM28.8562 7.04782H32.5258C33.007 7.04782 33.3852 7.43455 33.3852 7.9072C33.3852 8.38844 33.007 8.76657 32.5258 8.76657H28.8562C28.3836 8.76657 27.9969 8.38844 27.9969 7.9072C27.9969 7.43455 28.3836 7.04782 28.8562 7.04782ZM28.8562 10.7088H32.5258C33.007 10.7088 33.3852 11.0955 33.3852 11.5681C33.3852 12.0408 33.007 12.4275 32.5258 12.4275H28.8562C28.3836 12.4275 27.9969 12.0408 27.9969 11.5681C27.9969 11.0955 28.3836 10.7088 28.8562 10.7088ZM13.8258 15.315C12.3391 14.4728 11.2649 13.0978 10.8094 11.4564C10.3625 9.80643 10.5688 8.08768 11.4109 6.60093C12.2531 5.11423 13.6195 4.04861 15.2695 3.59312C18.6297 2.65643 22.1187 4.60723 23.0984 7.933C23.1156 7.96736 23.1242 8.00172 23.1328 8.04473C23.1414 8.06188 23.15 8.07908 23.15 8.09629C23.1586 8.12204 23.1586 8.13925 23.1586 8.165C23.4679 9.72907 22.9867 11.2845 21.8781 12.2127C21.3367 12.6596 20.6664 12.84 20.0477 12.7025C19.489 12.5822 19.025 12.2213 18.7328 11.6885C18.5265 12.0236 18.2945 12.3244 18.0195 12.5736C17.5039 13.0634 16.9024 13.3126 16.275 13.3126C16.1633 13.3126 16.0515 13.3041 15.9399 13.2869C14.3156 13.0634 13.4305 11.2759 13.6109 9.74627C13.7742 8.4314 14.6508 7.23691 15.8969 6.62674C16.2578 6.45485 17.5125 5.92204 18.5781 6.4205C18.9734 6.60093 19.4719 6.98766 19.6867 7.80408C19.6953 7.83843 19.7039 7.86424 19.7039 7.8986C19.7125 7.933 19.7125 7.96736 19.7125 7.99311C19.7554 8.64625 19.8071 8.99002 19.9359 9.68611L19.9617 9.83219C20.0304 10.2017 20.0906 10.5455 20.2109 10.8119C20.2539 10.8978 20.3227 11.0009 20.4172 11.0267C20.5203 11.0439 20.6492 11.0009 20.7781 10.8893C21.5172 10.2705 21.6203 9.25642 21.4742 8.50877C20.7867 6.02516 18.2172 4.55561 15.725 5.24316C14.5219 5.57827 13.525 6.36033 12.9062 7.44315C12.2961 8.53452 12.1328 9.78923 12.468 10.9924C12.8031 12.1955 13.5851 13.201 14.668 13.8111C15.7594 14.4299 17.0141 14.5846 18.2172 14.258C18.5437 14.1635 18.8617 14.0345 19.1625 13.8799C19.575 13.665 20.0992 13.8197 20.3227 14.2408C20.5375 14.6619 20.3828 15.1775 19.9617 15.401C19.5492 15.6158 19.1195 15.7877 18.6812 15.908C18.1141 16.0713 17.5383 16.1486 16.9625 16.1486C15.8711 16.1486 14.7969 15.865 13.8258 15.315Z" fill="white"/>
</svg>
