<svg width="294" height="60" viewBox="0 0 294 60" fill="none" xmlns="http://www.w3.org/2000/svg">
<path d="M10.8333 24.9167H24.9167C25.5158 24.9167 26 24.4313 26 23.8333C26 23.2353 25.5158 22.75 24.9167 22.75H10.8333C10.2343 22.75 9.75 23.2353 9.75 23.8333C9.75 24.4313 10.2343 24.9167 10.8333 24.9167Z" fill="#272121"/>
<path d="M39 29.25H10.8333C10.2343 29.25 9.75 29.7353 9.75 30.3333C9.75 30.9313 10.2343 31.4167 10.8333 31.4167H39C39.5991 31.4167 40.0833 30.9313 40.0833 30.3333C40.0833 29.7353 39.5991 29.25 39 29.25Z" fill="#272121"/>
<path d="M39 35.75H10.8333C10.2343 35.75 9.75 36.2353 9.75 36.8333C9.75 37.4313 10.2343 37.9167 10.8333 37.9167H39C39.5991 37.9167 40.0833 37.4313 40.0833 36.8333C40.0833 36.2353 39.5991 35.75 39 35.75Z" fill="#272121"/>
<path d="M58.578 0.0758335L21.5908 0C18.0483 0 15.1667 2.88167 15.1667 6.42417V11.9752L6.42417 11.9936C2.88167 11.9936 0 14.8752 0 18.4177V41.3205C0 44.863 2.88167 47.7436 6.42417 47.7436H13V58.5769C13 59.0243 13.2752 59.4263 13.6933 59.5877C13.8201 59.6364 13.9523 59.6602 14.0833 59.6602C14.3823 59.6602 14.6759 59.5357 14.885 59.306L25.3977 47.7414L43.4092 47.6677C46.9517 47.6677 49.8333 44.7861 49.8333 41.2447V41.1222L55.5317 47.3904C55.7407 47.6201 56.0343 47.7447 56.3333 47.7447C56.4644 47.7447 56.5966 47.7208 56.7233 47.6721C57.1415 47.5107 57.4167 47.1087 57.4167 46.6613V35.828H58.5758C62.1183 35.828 65 32.9463 65 29.4049V6.5C65 2.95858 62.1194 0.0769169 58.578 0.0758335ZM47.6667 41.2436C47.6667 43.5912 45.7568 45.5 43.4048 45.5L24.9123 45.5758C24.609 45.5769 24.3187 45.7058 24.115 45.9301L15.1667 55.7743V46.6592C15.1667 46.0612 14.6824 45.5758 14.0833 45.5758H6.42417C4.07658 45.5758 2.16667 43.6659 2.16667 41.3194V18.4167C2.16667 16.0691 4.07658 14.1592 6.42633 14.1592L16.25 14.1386H16.2522L43.4092 14.0822C45.7568 14.0822 47.6667 15.9922 47.6667 18.3397V41.2436ZM62.8333 29.4027C62.8333 31.7503 60.9234 33.6592 58.5758 33.6592H56.3333C55.7343 33.6592 55.25 34.1445 55.25 34.7425V43.8577L49.8333 37.8993V18.3408C49.8333 14.7983 46.9517 11.9167 43.407 11.9167L17.3333 11.9697V6.42308C17.3333 4.0755 19.2432 2.16558 21.5887 2.16558L58.5748 2.24142H58.5769C60.9245 2.24142 62.8344 4.15133 62.8344 6.49892V29.4027H62.8333Z" fill="#272121"/>
<path d="M98.916 41.3296V9.42958H107.628C109.3 9.42958 110.825 9.64958 112.204 10.0896C113.612 10.5296 114.815 11.1896 115.812 12.0696C116.839 12.9202 117.631 13.9762 118.188 15.2376C118.745 16.4696 119.024 17.8923 119.024 19.5056C119.024 20.3856 118.936 21.2656 118.76 22.1456C118.584 22.9963 118.291 23.8323 117.88 24.6536C117.499 25.4456 117 26.1936 116.384 26.8976C115.768 27.5723 115.02 28.1442 114.14 28.6136C115.313 30.4616 116.589 32.5149 117.968 34.7736C119.347 37.0029 120.74 39.1882 122.148 41.3296H116.384C115.797 40.4202 115.181 39.4669 114.536 38.4696C113.92 37.4722 113.289 36.4896 112.644 35.5216C112.028 34.5243 111.412 33.5563 110.796 32.6176C110.209 31.6496 109.652 30.7549 109.124 29.9336H103.756V41.3296H98.916ZM103.756 25.4016H108.112C109.285 25.4016 110.268 25.2109 111.06 24.8296C111.852 24.4189 112.468 23.9202 112.908 23.3336C113.377 22.7469 113.7 22.1162 113.876 21.4416C114.081 20.7669 114.184 20.1509 114.184 19.5936C114.184 19.0362 114.081 18.4349 113.876 17.7896C113.7 17.1149 113.377 16.4989 112.908 15.9416C112.439 15.3549 111.808 14.8709 111.016 14.4896C110.253 14.1082 109.3 13.9176 108.156 13.9176H103.756V25.4016Z" fill="#272121"/>
<path d="M139.169 39.1736C138.289 39.9656 137.218 40.5962 135.957 41.0656C134.696 41.5349 133.405 41.7696 132.085 41.7696C130.736 41.7696 129.46 41.5202 128.257 41.0216C127.084 40.4936 126.057 39.8042 125.177 38.9536C124.297 38.0736 123.593 37.0469 123.065 35.8736C122.566 34.7003 122.317 33.4536 122.317 32.1336C122.317 30.8136 122.566 29.5669 123.065 28.3936C123.593 27.2202 124.297 26.1936 125.177 25.3136C126.057 24.4336 127.069 23.7442 128.213 23.2456C129.386 22.7176 130.633 22.4536 131.953 22.4536C134.036 22.4536 135.84 23.0842 137.365 24.3456C138.92 25.5776 140.034 27.2056 140.709 29.2296C139.8 29.5522 138.758 29.9482 137.585 30.4176C136.412 30.8869 135.194 31.3856 133.933 31.9136C132.672 32.4123 131.41 32.9109 130.149 33.4096C128.888 33.9083 127.714 34.3629 126.629 34.7736C127.128 35.7709 127.846 36.5776 128.785 37.1936C129.753 37.7803 130.824 38.0736 131.997 38.0736C132.789 38.0736 133.581 37.9269 134.373 37.6336C135.194 37.3402 135.854 36.9443 136.353 36.4456L139.169 39.1736ZM136.001 28.3496C135.649 27.6162 135.092 27.0736 134.329 26.7216C133.566 26.3402 132.789 26.1496 131.997 26.1496C131.146 26.1496 130.354 26.3109 129.621 26.6336C128.917 26.9562 128.301 27.3962 127.773 27.9536C127.245 28.4816 126.82 29.0976 126.497 29.8016C126.204 30.5056 126.057 31.2242 126.057 31.9576C126.057 32.1042 126.057 32.2069 126.057 32.2656C126.086 32.3242 126.101 32.3682 126.101 32.3976C126.864 32.1042 127.685 31.7816 128.565 31.4296C129.474 31.0483 130.369 30.6816 131.249 30.3296C132.129 29.9482 132.98 29.5962 133.801 29.2736C134.622 28.9216 135.356 28.6136 136.001 28.3496Z" fill="#272121"/>
<path d="M142.684 32.3096C142.684 30.9602 142.934 29.6989 143.432 28.5256C143.96 27.3229 144.664 26.2816 145.544 25.4016C146.424 24.4923 147.436 23.7736 148.58 23.2456C149.754 22.7176 151 22.4536 152.32 22.4536C153.2 22.4536 154.007 22.5709 154.74 22.8056C155.474 23.0109 156.104 23.2749 156.632 23.5976C157.16 23.9202 157.586 24.2576 157.908 24.6096C158.231 24.9616 158.451 25.2696 158.568 25.5336L158.744 22.9376H162.352V41.3296H158.568V38.9976C158.422 39.2323 158.187 39.5109 157.864 39.8336C157.542 40.1562 157.116 40.4642 156.588 40.7576C156.09 41.0216 155.488 41.2562 154.784 41.4616C154.08 41.6669 153.274 41.7696 152.364 41.7696C150.956 41.7696 149.651 41.5202 148.448 41.0216C147.275 40.4936 146.263 39.8042 145.412 38.9536C144.562 38.0736 143.887 37.0616 143.388 35.9176C142.919 34.7736 142.684 33.5709 142.684 32.3096ZM146.468 32.0896C146.468 32.9403 146.615 33.7323 146.908 34.4656C147.231 35.1989 147.656 35.8296 148.184 36.3576C148.712 36.8856 149.343 37.3109 150.076 37.6336C150.81 37.9269 151.616 38.0736 152.496 38.0736C153.376 38.0736 154.183 37.9269 154.916 37.6336C155.679 37.3109 156.324 36.8856 156.852 36.3576C157.41 35.8002 157.835 35.1696 158.128 34.4656C158.422 33.7323 158.568 32.9403 158.568 32.0896C158.568 31.2389 158.422 30.4616 158.128 29.7576C157.835 29.0243 157.41 28.3936 156.852 27.8656C156.324 27.3376 155.679 26.9269 154.916 26.6336C154.183 26.3109 153.376 26.1496 152.496 26.1496C151.616 26.1496 150.81 26.3109 150.076 26.6336C149.343 26.9269 148.712 27.3376 148.184 27.8656C147.656 28.3936 147.231 29.0243 146.908 29.7576C146.615 30.4616 146.468 31.2389 146.468 32.0896Z" fill="#272121"/>
<path d="M179.956 36.7976C180.367 37.2963 180.748 37.7803 181.1 38.2496C181.481 38.6896 181.863 39.1589 182.244 39.6576C181.423 40.3029 180.499 40.8162 179.472 41.1976C178.445 41.5789 177.331 41.7696 176.128 41.7696C174.779 41.7696 173.503 41.5202 172.3 41.0216C171.127 40.4936 170.1 39.7896 169.22 38.9096C168.34 38.0296 167.636 37.0029 167.108 35.8296C166.609 34.6562 166.36 33.4096 166.36 32.0896C166.36 30.7696 166.609 29.5229 167.108 28.3496C167.636 27.1763 168.34 26.1643 169.22 25.3136C170.1 24.4336 171.127 23.7442 172.3 23.2456C173.503 22.7176 174.779 22.4536 176.128 22.4536C177.36 22.4536 178.489 22.6442 179.516 23.0256C180.572 23.4069 181.525 23.9202 182.376 24.5656L179.956 27.4256C179.457 27.0149 178.885 26.7069 178.24 26.5016C177.595 26.2669 176.891 26.1496 176.128 26.1496C175.248 26.1496 174.441 26.3109 173.708 26.6336C172.975 26.9269 172.329 27.3376 171.772 27.8656C171.244 28.3936 170.833 29.0243 170.54 29.7576C170.247 30.4616 170.1 31.2389 170.1 32.0896C170.1 32.9403 170.247 33.7323 170.54 34.4656C170.833 35.1696 171.244 35.8002 171.772 36.3576C172.329 36.8856 172.975 37.3109 173.708 37.6336C174.441 37.9269 175.248 38.0736 176.128 38.0736C176.891 38.0736 177.595 37.9709 178.24 37.7656C178.885 37.5309 179.457 37.2083 179.956 36.7976Z" fill="#272121"/>
<path d="M187.525 14.8416H191.265V22.9816H196.193V26.3256H191.265V41.3296H187.525V26.3256H184.225V22.9816H187.525V14.8416Z" fill="#272121"/>
<path d="M234.393 39.0416C234.041 39.3056 233.542 39.5989 232.897 39.9216C232.281 40.2149 231.547 40.4936 230.697 40.7576C229.846 41.0216 228.893 41.2416 227.837 41.4176C226.81 41.5936 225.71 41.6816 224.537 41.6816C222.043 41.6816 219.799 41.2562 217.805 40.4056C215.839 39.5256 214.167 38.3522 212.789 36.8856C211.41 35.4189 210.354 33.7176 209.621 31.7816C208.887 29.8456 208.521 27.7922 208.521 25.6216C208.521 23.2162 208.946 21.0016 209.797 18.9776C210.677 16.9536 211.865 15.2082 213.361 13.7416C214.857 12.2749 216.602 11.1309 218.597 10.3096C220.621 9.48825 222.762 9.07758 225.021 9.07758C225.871 9.07758 226.737 9.13625 227.617 9.25358C228.497 9.37092 229.318 9.53225 230.081 9.73758C230.873 9.94291 231.562 10.1922 232.149 10.4856C232.765 10.7496 233.234 11.0282 233.557 11.3216C233.322 11.6736 233.131 11.9669 232.985 12.2016C232.867 12.4362 232.735 12.6856 232.589 12.9496C232.442 13.1842 232.281 13.4629 232.105 13.7856C231.929 14.1082 231.694 14.5336 231.401 15.0616C231.019 14.7976 230.565 14.5776 230.037 14.4016C229.538 14.2256 229.01 14.0789 228.453 13.9616C227.895 13.8442 227.323 13.7562 226.737 13.6976C226.179 13.6389 225.666 13.6096 225.197 13.6096C223.495 13.6096 221.911 13.9322 220.445 14.5776C219.007 15.1936 217.761 16.0443 216.705 17.1296C215.649 18.1856 214.813 19.4176 214.197 20.8256C213.61 22.2336 213.317 23.7002 213.317 25.2256C213.317 26.7216 213.595 28.1589 214.153 29.5376C214.739 30.9162 215.531 32.1482 216.529 33.2336C217.555 34.3189 218.773 35.1842 220.181 35.8296C221.618 36.4749 223.187 36.7976 224.889 36.7976C225.798 36.7976 226.678 36.7096 227.529 36.5336C228.379 36.3576 229.142 36.1522 229.817 35.9176C230.521 35.6829 231.093 35.4482 231.533 35.2136C232.002 34.9789 232.281 34.8029 232.369 34.6856L234.393 39.0416Z" fill="#272121"/>
<path d="M237.503 7.14158H241.243V27.3816C241.889 25.9149 242.798 24.7416 243.971 23.8616C245.145 22.9522 246.655 22.4829 248.503 22.4536C250.381 22.4242 251.877 22.9229 252.991 23.9496C254.135 24.9762 254.737 26.3109 254.795 27.9536V41.3296H251.011V29.6696C250.953 28.7309 250.63 27.9389 250.043 27.2936C249.457 26.6189 248.533 26.2522 247.271 26.1936C246.391 26.1936 245.585 26.3549 244.851 26.6776C244.118 26.9709 243.487 27.3816 242.959 27.9096C242.431 28.4376 242.006 29.0682 241.683 29.8016C241.39 30.5349 241.243 31.3416 241.243 32.2216V41.3296H237.503V7.14158Z" fill="#272121"/>
<path d="M258.614 32.3096C258.614 30.9602 258.863 29.6989 259.362 28.5256C259.89 27.3229 260.594 26.2816 261.474 25.4016C262.354 24.4923 263.366 23.7736 264.51 23.2456C265.683 22.7176 266.93 22.4536 268.25 22.4536C269.13 22.4536 269.937 22.5709 270.67 22.8056C271.403 23.0109 272.034 23.2749 272.562 23.5976C273.09 23.9202 273.515 24.2576 273.838 24.6096C274.161 24.9616 274.381 25.2696 274.498 25.5336L274.674 22.9376H278.282V41.3296H274.498V38.9976C274.351 39.2323 274.117 39.5109 273.794 39.8336C273.471 40.1562 273.046 40.4642 272.518 40.7576C272.019 41.0216 271.418 41.2562 270.714 41.4616C270.01 41.6669 269.203 41.7696 268.294 41.7696C266.886 41.7696 265.581 41.5202 264.378 41.0216C263.205 40.4936 262.193 39.8042 261.342 38.9536C260.491 38.0736 259.817 37.0616 259.318 35.9176C258.849 34.7736 258.614 33.5709 258.614 32.3096ZM262.398 32.0896C262.398 32.9403 262.545 33.7323 262.838 34.4656C263.161 35.1989 263.586 35.8296 264.114 36.3576C264.642 36.8856 265.273 37.3109 266.006 37.6336C266.739 37.9269 267.546 38.0736 268.426 38.0736C269.306 38.0736 270.113 37.9269 270.846 37.6336C271.609 37.3109 272.254 36.8856 272.782 36.3576C273.339 35.8002 273.765 35.1696 274.058 34.4656C274.351 33.7323 274.498 32.9403 274.498 32.0896C274.498 31.2389 274.351 30.4616 274.058 29.7576C273.765 29.0243 273.339 28.3936 272.782 27.8656C272.254 27.3376 271.609 26.9269 270.846 26.6336C270.113 26.3109 269.306 26.1496 268.426 26.1496C267.546 26.1496 266.739 26.3109 266.006 26.6336C265.273 26.9269 264.642 27.3376 264.114 27.8656C263.586 28.3936 263.161 29.0243 262.838 29.7576C262.545 30.4616 262.398 31.2389 262.398 32.0896Z" fill="#272121"/>
<path d="M285.15 14.8416H288.89V22.9816H293.818V26.3256H288.89V41.3296H285.15V26.3256H281.85V22.9816H285.15V14.8416Z" fill="#272121"/>
</svg>
