<svg width="30" height="31" viewBox="0 0 30 31" fill="none" xmlns="http://www.w3.org/2000/svg">
<path d="M4.98064 12.6421H11.4559C11.7313 12.6421 11.954 12.3959 11.954 12.0925C11.954 11.7891 11.7313 11.5428 11.4559 11.5428H4.98064C4.70519 11.5428 4.48254 11.7891 4.48254 12.0925C4.48254 12.3959 4.70519 12.6421 4.98064 12.6421Z" fill="white"/>
<path d="M17.9311 14.8407H4.98064C4.70519 14.8407 4.48254 15.087 4.48254 15.3904C4.48254 15.6938 4.70519 15.94 4.98064 15.94H17.9311C18.2066 15.94 18.4292 15.6938 18.4292 15.3904C18.4292 15.087 18.2066 14.8407 17.9311 14.8407Z" fill="white"/>
<path d="M17.9311 18.1386H4.98064C4.70519 18.1386 4.48254 18.3848 4.48254 18.6882C4.48254 18.9916 4.70519 19.2379 4.98064 19.2379H17.9311C18.2066 19.2379 18.4292 18.9916 18.4292 18.6882C18.4292 18.3848 18.2066 18.1386 17.9311 18.1386Z" fill="white"/>
<path d="M26.933 0.0384759L9.92705 0C8.29827 0 6.97334 1.46208 6.97334 3.25945V6.07588L2.95371 6.08522C1.32493 6.08522 0 7.5473 0 9.34467V20.9649C0 22.7623 1.32493 24.2238 2.95371 24.2238H5.97715V29.7203C5.97715 29.9474 6.10366 30.1513 6.29593 30.2332C6.35421 30.2579 6.41497 30.27 6.47524 30.27C6.61272 30.27 6.7477 30.2068 6.84383 30.0903L11.6774 24.2227L19.9587 24.1853C21.5875 24.1853 22.9124 22.7233 22.9124 20.9264V20.8643L25.5324 24.0446C25.6285 24.1611 25.7635 24.2244 25.901 24.2244C25.9612 24.2244 26.022 24.2123 26.0803 24.1875C26.2726 24.1056 26.3991 23.9017 26.3991 23.6747V18.1782H26.932C28.5608 18.1782 29.8857 16.7161 29.8857 14.9193V3.29792C29.8857 1.50111 28.5613 0.0390255 26.933 0.0384759ZM21.9162 20.9259C21.9162 22.117 21.0381 23.0855 19.9567 23.0855L11.4542 23.1239C11.3147 23.1245 11.1813 23.1899 11.0876 23.3037L6.97334 28.2984V23.6736C6.97334 23.3702 6.75069 23.1239 6.47524 23.1239H2.95371C1.87433 23.1239 0.996191 22.1549 0.996191 20.9644V9.34412C0.996191 8.15302 1.87433 7.18398 2.9547 7.18398L7.47144 7.17354C7.47193 7.17354 7.47193 7.17354 7.47243 7.17354L19.9587 7.14495C21.0381 7.14495 21.9162 8.11399 21.9162 9.30509V19.4413V20.9259ZM28.8895 14.9182C28.8895 16.1093 28.0114 17.0778 26.932 17.0778H25.901C25.6255 17.0778 25.4029 17.324 25.4029 17.6274V22.2522L22.9124 19.2291V9.30564C22.9124 7.50828 21.5875 6.0462 19.9577 6.0462L7.96953 6.07313V3.2589C7.96953 2.0678 8.84767 1.09876 9.92605 1.09876L26.9315 1.13723C26.932 1.13723 26.932 1.13723 26.9325 1.13723C28.0119 1.13723 28.89 2.10627 28.89 3.29737V14.9182H28.8895Z" fill="white"/>
</svg>
