<svg width="19" height="19" viewBox="0 0 19 19" fill="none" xmlns="http://www.w3.org/2000/svg">
<path d="M11.9543 14.0859C10.0742 14.0859 8.30058 13.3585 6.97036 12.028C5.64014 10.6975 4.91295 8.92344 4.91295 7.04295C4.91295 5.16246 5.64014 3.38842 6.97036 2.05789C8.30058 0.727357 10.0742 0 11.9543 0C13.8343 0 15.6079 0.727357 16.9382 2.05789C19.6873 4.80766 19.6873 9.27824 16.9382 12.028C15.6079 13.3585 13.8343 14.0859 11.9543 14.0859ZM11.9543 2.05789C10.624 2.05789 9.36476 2.57236 8.42474 3.5126C6.47375 5.46405 6.47375 8.62185 8.42474 10.5733C9.36476 11.5135 10.624 12.028 11.9543 12.028C13.2845 12.028 14.5438 11.5135 15.4838 10.5733C16.4238 9.63305 16.9382 8.37348 16.9382 7.04295C16.9382 5.71242 16.4238 4.45285 15.4838 3.5126C14.5438 2.57236 13.2845 2.05789 11.9543 2.05789ZM0 17.0663L5.28541 11.7796C5.55146 12.1522 5.85298 12.507 6.17223 12.8263C6.49148 13.1457 6.84621 13.4472 7.21867 13.7134L1.93326 19L0 17.0663Z" fill="white"/>
</svg>
